<svg data-v-423bf9ae="" xmlns="http://www.w3.org/2000/svg" viewBox="0 0 421 112" class="logo"><!----><!----><!----><g data-v-423bf9ae="" id="7d53b157-2141-4c78-8c4c-8bdda932c5d2" fill="#2F190E" transform="matrix(5.3523640632629395,0,0,5.3523640632629395,129.9871368408203,28.60640525817871)"><path d="M8.93 8.46L8.46 8.46C8.15 8.46 8.06 8.26 8.06 8.02L8.06 5.71C8.06 3.72 6.97 2.66 4.35 2.66C1.60 2.66 0.67 3.95 0.59 5.31L3.61 5.52C3.67 4.83 3.89 4.68 4.23 4.68C4.56 4.68 4.77 4.80 4.77 5.42L4.77 5.88L4.02 5.88C1.57 5.88 0.21 6.61 0.21 8.36C0.21 9.39 0.78 10.64 2.76 10.64C3.93 10.64 4.77 10.18 5.05 9.21C5.21 10.26 5.99 10.64 7.22 10.64C7.87 10.64 8.39 10.61 8.93 10.57ZM4.79 7.73C4.79 8.27 4.59 8.58 4.10 8.58C3.68 8.58 3.47 8.29 3.47 7.94C3.47 7.55 3.71 7.27 4.30 7.27L4.77 7.27ZM14.11 10.50L17.54 10.50L17.54 5.15C17.54 3.88 17.11 2.66 15.23 2.66C14.34 2.66 13.40 3.00 12.99 4.30L12.82 2.81L9.52 2.81C9.52 2.81 9.58 3.99 9.58 4.84L9.58 10.50L13.01 10.50L13.01 6.34C13.01 5.84 13.15 5.29 13.66 5.29C14.03 5.29 14.11 5.54 14.11 6.10ZM18.62 10.50L22.09 10.50L22.09 2.81L18.62 2.81ZM18.63 2.02L22.11 2.02L22.11-0.57L18.63-0.57ZM27.52 10.50L30.98 10.50L30.98 6.51C30.98 5.59 31.18 5.29 31.56 5.29C31.85 5.29 31.96 5.63 31.96 6.06L31.96 10.50L35.53 10.50L35.53 4.96C35.53 3.47 34.97 2.66 33.25 2.66C32.49 2.66 31.30 3.05 30.98 4.26C30.73 3.35 30.10 2.66 28.76 2.66C27.97 2.66 26.94 3.02 26.54 4.17C26.50 3.68 26.43 3.09 26.42 2.81L23.17 2.81C23.20 3.26 23.21 3.96 23.21 4.66L23.21 10.50L26.54 10.50L26.54 6.50C26.54 5.53 26.80 5.29 27.08 5.29C27.47 5.29 27.52 5.64 27.52 5.99ZM40.57 10.64C43.41 10.64 44.30 9.21 44.49 7.90L41.22 7.74C41.19 8.30 40.98 8.62 40.54 8.62C40.11 8.62 39.90 8.23 39.90 7.45L39.90 7.27L44.55 7.27C44.55 7.27 44.58 6.90 44.58 6.44C44.58 4.20 43.15 2.66 40.53 2.66C38.32 2.66 36.44 3.75 36.44 6.64C36.44 8.61 37.37 10.64 40.57 10.64ZM39.90 5.63C39.90 4.73 40.18 4.54 40.53 4.54C40.89 4.54 41.17 4.69 41.17 5.66L41.17 5.78L39.90 5.78ZM50.68 10.50L54.31 10.50L52.04 6.44L53.98 2.81L50.44 2.81L49.55 4.82L48.65 2.81L45.05 2.81L47.21 6.57L45.05 10.50L48.69 10.50L49.59 8.50Z"></path></g><defs data-v-423bf9ae=""><linearGradient data-v-423bf9ae="" gradientTransform="rotate(25)" id="ec12949a-9195-4c56-a03f-af0841e1a142" x1="0%" y1="0%" x2="100%" y2="0%"><stop data-v-423bf9ae="" offset="0%" style="stop-color: rgb(169, 37, 128); stop-opacity: 1;"></stop><stop data-v-423bf9ae="" offset="100%" style="stop-color: rgb(247, 188, 0); stop-opacity: 1;"></stop></linearGradient></defs><g data-v-423bf9ae="" id="f5d9468e-39ff-4c4f-bcf3-048cf240009c" transform="matrix(1.1111111640930176,0,0,1.1111111640930176,0.4444417953491211,0.4444417953491211)" stroke="none" fill="url(#ec12949a-9195-4c56-a03f-af0841e1a142)"><path d="M29.032 52H7c.774 23.327 19.953 42 43.5 42S93.226 75.327 94 52H71.968C71.214 63.184 61.891 72.023 50.5 72.023c-11.39 0-20.714-8.839-21.468-20.023zM50 100C22.386 100 0 77.614 0 50S22.386 0 50 0s50 22.386 50 50-22.386 50-50 50zm0-64c-7.732 0-14 6.268-14 14s6.268 14 14 14 14-6.268 14-14-6.268-14-14-14zm0 0"></path></g><!----></svg>